<svg xmlns="http://www.w3.org/2000/svg" width="1600" height="680" viewBox="0 0 400 170" preserveAspectRatio="xMidYMid slice">
  <defs>
    <radialGradient id="glow" cx="0.78" cy="0.3" r="0.6">
      <stop offset="0" stop-color="#1EB1F1" stop-opacity=".35"/>
      <stop offset="1" stop-color="#1EB1F1" stop-opacity="0"/>
    </radialGradient>
    <pattern id="grid" width="20" height="20" patternUnits="userSpaceOnUse">
      <path d="M20 0H0V20" fill="none" stroke="#FFFFFF" stroke-opacity=".05"/>
    </pattern>
    <linearGradient id="fade" x1="0" x2="1">
      <stop offset="0" stop-color="#1A2266"/>
      <stop offset=".45" stop-color="#1A2266" stop-opacity="0"/>
    </linearGradient>
    <filter id="shadow" x="-30%" y="-30%" width="160%" height="160%">
      <feDropShadow dx="0" dy="8" stdDeviation="8" flood-color="#060a30" flood-opacity=".45"/>
    </filter>
    <filter id="soft"><feGaussianBlur stdDeviation="4"/></filter>
  </defs>
  <rect width="400" height="170" fill="#1A2266"/>
  <rect width="400" height="170" fill="url(#grid)"/>
  <rect width="400" height="170" fill="url(#glow)"/>
  <rect width="400" height="170" fill="url(#fade)"/>
  <path d="M334 170 L338 64 L342 170Z" fill="#FFFFFF" fill-opacity=".85"/>
  <g transform="translate(338 62)">
    <g><path d="M0 0 C 4 -10, 3 -32, 0 -44 C -3 -32, -4 -10, 0 0Z" fill="#FFFFFF" transform="rotate(0)"/><path d="M0 0 C 4 -10, 3 -32, 0 -44 C -3 -32, -4 -10, 0 0Z" fill="#FFFFFF" transform="rotate(120)"/><path d="M0 0 C 4 -10, 3 -32, 0 -44 C -3 -32, -4 -10, 0 0Z" fill="#FFFFFF" transform="rotate(240)"/></g>
    <circle r="5" fill="#1EB1F1"/>
  </g>
  <path d="M378 170 L380 112 L382 170Z" fill="#FFFFFF" fill-opacity=".35"/>
  <g transform="translate(380 110) scale(.55) rotate(40)"><path d="M0 0 C 4 -10, 3 -32, 0 -44 C -3 -32, -4 -10, 0 0Z" fill="#FFFFFF" fill-opacity=".5" transform="rotate(0)"/><path d="M0 0 C 4 -10, 3 -32, 0 -44 C -3 -32, -4 -10, 0 0Z" fill="#FFFFFF" fill-opacity=".5" transform="rotate(120)"/><path d="M0 0 C 4 -10, 3 -32, 0 -44 C -3 -32, -4 -10, 0 0Z" fill="#FFFFFF" fill-opacity=".5" transform="rotate(240)"/></g>
  <g filter="url(#shadow)">
    <rect x="186" y="44" width="104" height="98" rx="10" fill="#FFFFFF"/>
    <rect x="186" y="44" width="104" height="26" rx="10" fill="#2BAB6F"/>
    <rect x="186" y="60" width="104" height="10" fill="#2BAB6F"/>
    <rect x="198" y="53" width="44" height="6" rx="3" fill="#FFFFFF"/>
    <rect x="198" y="82" width="56" height="6" rx="3" fill="#1A2266"/>
    <rect x="198" y="94" width="40" height="5" rx="2.5" fill="#1A2266" fill-opacity=".25"/>
    <rect x="198" y="118" width="30" height="12" rx="4" fill="#2BAB6F" fill-opacity=".15"/>
    <rect x="203" y="122" width="20" height="4" rx="2" fill="#2BAB6F"/>
  </g>
  <g transform="translate(262 116)" filter="url(#shadow)">
    <path d="M0 20 C -2 -6, 18 -26, 44 -24 C 46 4, 26 22, 0 20Z" fill="#2BAB6F"/>
    <path d="M2 18 C 12 6, 22 -4, 36 -16" fill="none" stroke="#FFFFFF" stroke-opacity=".8" stroke-width="2" stroke-linecap="round"/>
  </g>
  <circle cx="370" cy="30" r="12" fill="#1EB1F1" fill-opacity=".25"/>
  <circle cx="370" cy="30" r="6" fill="#7fd8fb"/>
</svg>
